<svg width="256" height="351" viewBox="0 0 256 351" xmlns="http://www.w3.org/2000/svg" xmlns:xlink="http://www.w3.org/1999/xlink" preserveAspectRatio="xMidYMid">
  <defs>
    <path d="M1.2527 280.7316l1.6056-3.1307 99.353-188.518-44.15-83.475C54.392-1.283 45.074.4736 43.87 8.188L1.2526 280.7315z" id="a"/>
    <filter x="-50%" y="-50%" width="200%" height="200%" filterUnits="objectBoundingBox" id="b">
      <feGaussianBlur stdDeviation="17.5" in="SourceAlpha" result="shadowBlurInner1"/>
      <feOffset in="shadowBlurInner1" result="shadowOffsetInner1"/>
      <feComposite in="shadowOffsetInner1" in2="SourceAlpha" operator="arithmetic" k2="-1" k3="1" result="shadowInnerInner1"/>
      <feColorMatrix values="0 0 0 0 0 0 0 0 0 0 0 0 0 0 0 0 0 0 0.06 0" in="shadowInnerInner1"/>
    </filter>
    <path d="M134.417 148.9742l32.0387-32.8125-32.0386-61.007c-3.042-5.791-10.433-6.398-13.443-.59l-17.705 34.109-.5292 1.7438 31.6777 58.5567z" id="c"/>
    <filter x="-50%" y="-50%" width="200%" height="200%" filterUnits="objectBoundingBox" id="d">
      <feGaussianBlur stdDeviation="3.5" in="SourceAlpha" result="shadowBlurInner1"/>
      <feOffset dx="1" dy="-9" in="shadowBlurInner1" result="shadowOffsetInner1"/>
      <feComposite in="shadowOffsetInner1" in2="SourceAlpha" operator="arithmetic" k2="-1" k3="1" result="shadowInnerInner1"/>
      <feColorMatrix values="0 0 0 0 0 0 0 0 0 0 0 0 0 0 0 0 0 0 0.09 0" in="shadowInnerInner1"/>
    </filter>
  </defs>
  <path d="M0 282.9976l2.1225-2.972L102.5275 89.512l.212-2.017L58.4787 4.3583C54.7707-2.606 44.3313-.8452 43.1143 6.9507L0 282.9977z" fill="#FFC24A"/>
  <use fill="#FFA712" fill-rule="evenodd" xlink:href="#a"/>
  <use filter="url(#b)" xlink:href="#a"/>
  <path d="M135.005 150.3807l32.9552-33.7512-32.9648-62.9302c-3.1293-5.9568-11.8666-5.974-14.9628 0L102.421 87.288v2.8607l32.584 60.232z" fill="#F4BD62"/>
  <use fill="#FFA50E" fill-rule="evenodd" xlink:href="#c"/>
  <use filter="url(#d)" xlink:href="#c"/>
  <path fill="#F6820C" d="M0 282.9976l.962-.9672 3.4957-1.4208 128.4776-128 1.6277-4.431-32.05-61.0737"/>
  <path d="M139.121 347.5513l116.275-64.8476-33.2043-204.4944c-1.0386-6.398-8.888-8.9275-13.4674-4.34L.0003 282.998l115.6082 64.5475c7.306 4.0795 16.2044 4.0814 23.5125.0058" fill="#FDE068"/>
  <path d="M254.354 282.1598l-32.952-202.942c-1.0308-6.3494-7.5582-8.9768-12.1028-4.424L1.2895 282.6008l114.3383 63.9087c7.2507 4.0484 16.0814 4.0503 23.334.0056L254.354 282.16z" fill="#FCCA3F"/>
  <path d="M139.121 345.6408c-7.3082 4.0756-16.2064 4.0737-23.5126-.0057L.9314 282.015 0 282.998l115.6082 64.5475c7.3062 4.0795 16.2044 4.0814 23.5125.0058l116.275-64.8476-.2848-1.752-115.9907 64.689z" fill="#EEAB37"/>
</svg>
